<?xml version="1.0" encoding="UTF-8"?>
<!DOCTYPE svg PUBLIC "-//W3C//DTD SVG 1.1//EN" "http://www.w3.org/Graphics/SVG/1.1/DTD/svg11.dtd">
<!-- Creator: CorelDRAW Home & Student X8 -->
<svg xmlns="http://www.w3.org/2000/svg" xmlns:xlink="http://www.w3.org/1999/xlink" xml:space="preserve" width="4cm" height="4cm" version="1.1" shape-rendering="geometricPrecision" text-rendering="geometricPrecision" image-rendering="optimizeQuality" fill-rule="evenodd" clip-rule="evenodd" viewBox="5000 9000 7000 7000">
 <g id="Ebene_x0020_1">
  
  <path fill="none" stroke="#ddd" stroke-width="50" d="M8999 11421c150,-487 600,-820 1110,-820 640,0 1160,519 1160,1160 0,641 -520,1160 -1160,1160 -214,0 -424,-59 -607,-171m-1671 -1455c-28,-101 -43,-205 -43,-310 0,-641 520,-1160 1161,-1160 640,0 1160,519 1160,1160 0,289 -108,567 -302,781m-3094 193c-330,-214 -530,-580 -530,-974 0,-641 520,-1160 1161,-1160 640,0 1160,519 1160,1160m-1972 2267c-113,35 -230,53 -349,53 -640,0 -1160,-519 -1160,-1160 0,-640 520,-1160 1160,-1160 369,0 715,175 934,471m632 2436c-135,508 -595,861 -1121,861 -640,0 -1160,-519 -1160,-1160 0,-608 470,-1113 1076,-1157"/>
  <circle fill="#ddd" stroke="#ddd" stroke-width="20" cx="8202" cy="12104" r="63"/>
  <circle fill="#ddd" stroke="#ddd" stroke-width="20" cx="8440" cy="11893" r="63"/>
  <circle fill="#ddd" stroke="#ddd" stroke-width="20" cx="8122" cy="11825" r="63"/>
  <circle fill="#ddd" stroke="#ddd" stroke-width="20" cx="8440" cy="12245" r="63"/>
  <circle fill="#ddd" stroke="#ddd" stroke-width="20" cx="7447" cy="12197" r="63"/>
  <circle fill="#ddd" stroke="#ddd" stroke-width="20" cx="8047" cy="12324" r="63"/>
  <circle fill="#ddd" stroke="#ddd" stroke-width="20" cx="8174" cy="12879" r="63"/>
  <circle fill="#ddd" stroke="#ddd" stroke-width="20" cx="7765" cy="12245" r="63"/>
  <circle fill="#ddd" stroke="#ddd" stroke-width="20" cx="7638" cy="12858" r="63"/>
  <circle fill="#ddd" stroke="#ddd" stroke-width="20" cx="7320" cy="12499" r="63"/>
  <circle fill="#ddd" stroke="#ddd" stroke-width="20" cx="7581" cy="12563" r="63"/>
  <circle fill="#ddd" stroke="#ddd" stroke-width="20" cx="7676" cy="11888" r="63"/>
  <circle fill="#ddd" stroke="#ddd" stroke-width="20" cx="7909" cy="12046" r="63"/>
  <circle fill="#ddd" stroke="#ddd" stroke-width="20" cx="8473" cy="12506" r="63"/>
  <circle fill="#ddd" stroke="#ddd" stroke-width="20" cx="8711" cy="12440" r="63"/>
  <circle fill="#ddd" stroke="#ddd" stroke-width="20" cx="7345" cy="12808" r="63"/>
  <circle fill="#ddd" stroke="#ddd" stroke-width="20" cx="8504" cy="12794" r="63"/>
  <circle fill="#ddd" stroke="#ddd" stroke-width="20" cx="7972" cy="13150" r="63"/>
  <circle fill="#ddd" stroke="#ddd" stroke-width="20" cx="8329" cy="13062" r="63"/>
  <circle fill="#ddd" stroke="#ddd" stroke-width="20" cx="7931" cy="12666" r="63"/>
  <circle fill="#ddd" stroke="#ddd" stroke-width="20" cx="7549" cy="13110" r="63"/>
  <circle fill="#ddd" stroke="#ddd" stroke-width="20" cx="7828" cy="12935" r="63"/>
  <circle fill="#ddd" stroke="#ddd" stroke-width="20" cx="8592" cy="12118" r="63"/>
  <circle fill="#ddd" stroke="#ddd" stroke-width="20" cx="8202" cy="12506" r="63"/>
 </g>
</svg>
